<?xml version="1.0" standalone="no"?><!DOCTYPE svg PUBLIC "-//W3C//DTD SVG 1.1//EN" "http://www.w3.org/Graphics/SVG/1.1/DTD/svg11.dtd"><svg width="100%" height="100%" viewBox="0 0 1253 192" version="1.1" xmlns="http://www.w3.org/2000/svg" xmlns:xlink="http://www.w3.org/1999/xlink" xml:space="preserve" style="fill-rule:evenodd;clip-rule:evenodd;stroke-linejoin:round;stroke-miterlimit:1.41421;"><g><path d="M117.411,62.662c10.55,8.763 15.91,21.057 16.08,36.882l0,89.845l-44.667,0l0,-15.57c-9.189,11.742 -23.057,17.612 -41.604,17.612c-14.634,0 -26.163,-3.956 -34.586,-11.869c-8.423,-7.912 -12.634,-18.334 -12.634,-31.267c0,-13.102 4.552,-23.312 13.655,-30.629c9.104,-7.317 22.164,-11.06 39.18,-11.23l35.989,0l0,-1.532c0,-6.636 -2.255,-11.741 -6.764,-15.314c-4.509,-3.574 -11.018,-5.36 -19.526,-5.36c-5.785,0 -12.294,0.936 -19.526,2.807c-7.232,1.872 -14.506,4.595 -21.823,8.168l-12.507,-30.629c11.231,-5.105 21.994,-8.891 32.288,-11.358c10.295,-2.467 20.973,-3.701 32.033,-3.701c19.058,0 33.862,4.381 44.412,13.145ZM79.125,155.57c5.105,-3.318 8.338,-7.615 9.699,-12.89l0,-11.996l-27.056,0c-12.762,0 -19.143,4.764 -19.143,14.293c0,4.765 1.659,8.551 4.978,11.358c3.318,2.808 7.869,4.212 13.655,4.212c6.806,0 12.762,-1.659 17.867,-4.977Z" style="fill:url(#_Linear1);fill-rule:nonzero;"/><path d="M287.657,58.578c9.699,5.87 17.229,14.208 22.589,25.014c5.36,10.805 8.04,23.269 8.04,37.392c0,13.954 -2.595,26.205 -7.785,36.755c-5.19,10.55 -12.592,18.718 -22.206,24.503c-9.614,5.786 -20.717,8.679 -33.309,8.679c-8.678,0 -16.548,-1.659 -23.61,-4.978c-7.061,-3.318 -13.059,-8.125 -17.994,-14.421l0,17.867l-45.433,0l0,-189.389l45.433,0l0,69.17c10.039,-12.932 23.567,-19.398 40.583,-19.398c12.762,0 23.993,2.935 33.692,8.806ZM264.303,144.722c5.53,-6.296 8.295,-14.549 8.295,-24.759c0,-10.209 -2.765,-18.505 -8.295,-24.886c-5.531,-6.381 -12.72,-9.571 -21.568,-9.571c-8.679,0 -15.74,3.19 -21.185,9.571c-5.446,6.381 -8.168,14.677 -8.168,24.886c0,10.21 2.722,18.463 8.168,24.759c5.445,6.296 12.506,9.444 21.185,9.444c8.848,0 16.037,-3.148 21.568,-9.444Z" style="fill:url(#_Linear2);fill-rule:nonzero;"/><path d="M447.949,58.578c11.4,5.87 20.249,14.123 26.545,24.758c6.296,10.635 9.444,22.93 9.444,36.883c0,14.123 -3.148,26.502 -9.444,37.137c-6.296,10.635 -15.145,18.888 -26.545,24.759c-11.401,5.87 -24.589,8.806 -39.563,8.806c-14.974,0 -28.161,-2.936 -39.562,-8.806c-11.401,-5.871 -20.207,-14.124 -26.418,-24.759c-6.21,-10.635 -9.316,-23.014 -9.316,-37.137c0,-13.953 3.106,-26.248 9.316,-36.883c6.211,-10.635 15.017,-18.888 26.418,-24.758c11.401,-5.871 24.588,-8.806 39.562,-8.806c14.974,0 28.162,2.935 39.563,8.806ZM386.946,95.971c-5.445,6.296 -8.168,14.549 -8.168,24.758c0,10.38 2.723,18.718 8.168,25.014c5.445,6.296 12.592,9.444 21.44,9.444c9.019,0 16.251,-3.148 21.696,-9.444c5.445,-6.296 8.168,-14.634 8.168,-25.014c0,-10.209 -2.766,-18.462 -8.296,-24.758c-5.53,-6.296 -12.719,-9.444 -21.568,-9.444c-8.848,0 -15.995,3.148 -21.44,9.444Z" style="fill:url(#_Linear3);fill-rule:nonzero;"/><path d="M644.485,51.304l0,138.085l-45.433,0l0,-22.461c-9.359,15.995 -24.078,24.163 -44.157,24.503c-14.974,0 -26.928,-4.807 -35.862,-14.421c-8.933,-9.614 -13.4,-22.419 -13.4,-38.414l0,-87.292l45.433,0l0,74.275c0,7.827 2,13.953 5.998,18.377c3.999,4.424 9.402,6.636 16.208,6.636c7.998,-0.17 14.294,-3.105 18.888,-8.805c4.594,-5.701 6.892,-13.145 6.892,-22.334l0,-68.149l45.433,0Z" style="fill:url(#_Linear4);fill-rule:nonzero;"/><path d="M771.595,182.242c-5.105,2.893 -10.976,5.148 -17.612,6.764c-6.636,1.617 -13.357,2.425 -20.164,2.425c-13.613,0 -24.631,-3.914 -33.054,-11.741c-8.423,-7.827 -12.634,-18.633 -12.634,-32.416l0,-59.216l-19.143,0l0,-30.118l19.143,0l0,-38.286l45.178,0l0,38.286l35.733,0l0,30.118l-35.733,0l0,52.07c0,9.699 3.998,14.548 11.996,14.548c4.935,0 10.805,-1.531 17.612,-4.594l8.678,32.16Z" style="fill:url(#_Linear5);fill-rule:nonzero;"/><path d="M1075.33,63.81c9.019,9.529 13.528,22.377 13.528,38.542l0,87.037l-45.433,0l0,-74.02c0,-7.827 -2.042,-13.996 -6.126,-18.505c-4.084,-4.509 -9.614,-6.764 -16.591,-6.764c-7.997,0.17 -14.336,3.106 -19.015,8.806c-4.679,5.7 -7.019,13.145 -7.019,22.334l0,68.149l-45.433,0l0,-74.02c0,-7.827 -2.042,-13.996 -6.126,-18.505c-4.084,-4.509 -9.614,-6.764 -16.591,-6.764c-7.997,0.17 -14.378,3.106 -19.143,8.806c-4.764,5.7 -7.146,13.145 -7.146,22.334l0,68.149l-45.178,0l0,-138.085l45.178,0l0,22.716c4.764,-7.998 10.932,-14.081 18.505,-18.25c7.572,-4.169 16.378,-6.253 26.417,-6.253c11.231,0 20.845,2.722 28.842,8.168c7.998,5.445 13.698,13.017 17.101,22.716c4.425,-10.21 10.763,-17.909 19.016,-23.099c8.253,-5.19 17.994,-7.785 29.225,-7.785c14.974,0 26.971,4.764 35.989,14.293Z" style="fill:url(#_Linear6);fill-rule:nonzero;"/><path d="M1234.86,69.681c12.081,13.272 18.122,31.48 18.122,54.622c0,3.573 -0.085,6.296 -0.255,8.167l-95.971,0c2.212,7.828 6.041,13.826 11.486,17.995c5.445,4.169 12.081,6.253 19.909,6.253c5.955,0 11.698,-1.191 17.229,-3.573c5.53,-2.382 10.592,-5.871 15.187,-10.465l23.737,23.737c-7.147,7.998 -15.782,14.081 -25.907,18.25c-10.125,4.169 -21.568,6.254 -34.33,6.254c-14.804,0 -27.736,-2.893 -38.797,-8.679c-11.06,-5.785 -19.526,-13.953 -25.396,-24.503c-5.871,-10.55 -8.806,-22.801 -8.806,-36.755c0,-14.123 2.978,-26.587 8.933,-37.392c5.956,-10.806 14.379,-19.144 25.269,-25.014c10.891,-5.871 23.483,-8.806 37.776,-8.806c22.461,0 39.733,6.636 51.814,19.909ZM1208.82,108.222c0,-7.997 -2.339,-14.421 -7.019,-19.27c-4.679,-4.85 -10.847,-7.275 -18.505,-7.275c-7.146,0 -13.145,2.383 -17.994,7.147c-4.85,4.765 -8.04,11.231 -9.572,19.398l53.09,0Z" style="fill:url(#_Linear7);fill-rule:nonzero;"/></g><defs><linearGradient id="_Linear1" x1="0" y1="0" x2="1" y2="0" gradientUnits="userSpaceOnUse" gradientTransform="matrix(364.741,-60.4169,60.4169,364.741,103.424,135.215)"><stop offset="0%" style="stop-color:#f4f4f4;stop-opacity:1"/><stop offset="100%" style="stop-color:#f4f4f4;stop-opacity:1"/></linearGradient><linearGradient id="_Linear2" x1="0" y1="0" x2="1" y2="0" gradientUnits="userSpaceOnUse" gradientTransform="matrix(364.741,-60.4169,60.4169,364.741,103.424,135.215)"><stop offset="0%" style="stop-color:#f4f4f4;stop-opacity:1"/><stop offset="100%" style="stop-color:#f4f4f4;stop-opacity:1"/></linearGradient><linearGradient id="_Linear3" x1="0" y1="0" x2="1" y2="0" gradientUnits="userSpaceOnUse" gradientTransform="matrix(364.741,-60.4169,60.4169,364.741,103.424,135.215)"><stop offset="0%" style="stop-color:#f4f4f4;stop-opacity:1"/><stop offset="100%" style="stop-color:#f4f4f4;stop-opacity:1"/></linearGradient><linearGradient id="_Linear4" x1="0" y1="0" x2="1" y2="0" gradientUnits="userSpaceOnUse" gradientTransform="matrix(364.741,-60.4169,60.4169,364.741,103.424,135.215)"><stop offset="0%" style="stop-color:#f4f4f4;stop-opacity:1"/><stop offset="100%" style="stop-color:#f4f4f4;stop-opacity:1"/></linearGradient><linearGradient id="_Linear5" x1="0" y1="0" x2="1" y2="0" gradientUnits="userSpaceOnUse" gradientTransform="matrix(364.741,-60.4169,60.4169,364.741,103.424,135.215)"><stop offset="0%" style="stop-color:#f4f4f4;stop-opacity:1"/><stop offset="100%" style="stop-color:#f4f4f4;stop-opacity:1"/></linearGradient><linearGradient id="_Linear6" x1="0" y1="0" x2="1" y2="0" gradientUnits="userSpaceOnUse" gradientTransform="matrix(364.741,-60.4169,60.4169,364.741,103.424,135.215)"><stop offset="0%" style="stop-color:#f4f4f4;stop-opacity:1"/><stop offset="100%" style="stop-color:#f4f4f4;stop-opacity:1"/></linearGradient><linearGradient id="_Linear7" x1="0" y1="0" x2="1" y2="0" gradientUnits="userSpaceOnUse" gradientTransform="matrix(364.741,-60.4169,60.4169,364.741,103.424,135.215)"><stop offset="0%" style="stop-color:#f4f4f4;stop-opacity:1"/><stop offset="100%" style="stop-color:#f4f4f4;stop-opacity:1"/></linearGradient></defs></svg>