<?xml version="1.0" standalone="no"?><!DOCTYPE svg PUBLIC "-//W3C//DTD SVG 1.1//EN" "http://www.w3.org/Graphics/SVG/1.1/DTD/svg11.dtd"><svg width="100%" height="100%" viewBox="0 0 154 286" version="1.1" xmlns="http://www.w3.org/2000/svg" xmlns:xlink="http://www.w3.org/1999/xlink" xml:space="preserve" style="fill-rule:evenodd;clip-rule:evenodd;stroke-linejoin:round;stroke-miterlimit:1.41421;"><path d="M78.792,282.965c48.427,0 73.364,-33.61 73.364,-82.76l0,-196.716l-57.101,0l0,201.414c0,15.179 -8.674,25.659 -21.323,25.659c-13.01,0 -21.684,-14.094 -24.575,-26.382l-47.343,19.877c8.674,29.635 36.863,58.908 76.978,58.908Z" style="fill:#f5f5f5;fill-rule:nonzero;"/><clipPath id="_clip1"><path d="M78.792,282.965c48.427,0 73.364,-33.61 73.364,-82.76l0,-196.716l-57.101,0l0,201.414c0,15.179 -8.674,25.659 -21.323,25.659c-13.01,0 -21.684,-14.094 -24.575,-26.382l-47.343,19.877c8.674,29.635 36.863,58.908 76.978,58.908Z" clip-rule="nonzero"/></clipPath><g clip-path="url(#_clip1)"><path d="M129.299,148.217l23.359,51.366l-2.701,71.577l-62.55,13.196l41.892,-136.139Z" style="fill:#688ff4;"/><path d="M39.233,280.087l-52.658,-53.45l71.216,-26.215l-18.558,79.665Z" style="fill:#89f8ff;"/><path d="M161.637,182.38l-0.909,21.337l-51.747,-123.462l47.583,-11.423l5.073,113.548Z" style="fill:#82e6c2;"/><path d="M161.116,222.208l-31.735,-72.072l11.844,-41.023l19.891,113.095Z" style="fill:#f2bce0;"/><path d="M114.565,115.015l-22.092,33.348l1.47,-98.497l20.622,65.149Z" style="fill:#f2bce0;"/><path d="M154.147,-3.818l4.951,57.902l-25.132,26.246l-13.908,-79.335l34.089,-4.813Z" style="fill:#ffa750;"/><path d="M135.383,75.896l-22.231,37.383l-52.838,-119.996l57.473,-17.429l17.596,100.042Z" style="fill:#82e6c2;"/><path d="M113.152,113.279l16.229,36.857l-60.287,208.81l-81.135,-35.147l125.193,-210.52Z" style="fill:#ffa750;"/><path d="M141.225,109.113l-5.842,-33.217l32.32,-45.211l-26.478,78.428Z" style="fill:#688ff4;"/><path d="M141.225,109.113l-11.844,41.023l-16.229,-36.857l22.231,-37.383l5.842,33.217Z" style="fill:#89f8ff;"/></g></svg>