<?xml version="1.0" standalone="no"?><!DOCTYPE svg PUBLIC "-//W3C//DTD SVG 1.1//EN" "http://www.w3.org/Graphics/SVG/1.1/DTD/svg11.dtd"><svg width="100%" height="100%" viewBox="0 0 1061 253" version="1.1" xmlns="http://www.w3.org/2000/svg" xmlns:xlink="http://www.w3.org/1999/xlink" xml:space="preserve" style="fill-rule:evenodd;clip-rule:evenodd;stroke-linejoin:round;stroke-miterlimit:1.41421;"><g><path d="M119.708,70.829c9.699,5.871 17.229,14.209 22.589,25.014c5.36,10.805 8.04,23.27 8.04,37.393c0,13.953 -2.595,26.205 -7.785,36.755c-5.19,10.55 -12.592,18.717 -22.206,24.503c-9.614,5.785 -20.717,8.678 -33.309,8.678c-8.678,0 -16.548,-1.659 -23.61,-4.977c-7.061,-3.318 -13.059,-8.125 -17.994,-14.421l0,67.384l-45.433,0l0,-187.603l45.433,0l0,17.867c10.039,-12.932 23.567,-19.398 40.583,-19.398c12.762,0 23.993,2.935 33.692,8.805ZM96.354,156.973c5.53,-6.295 8.295,-14.548 8.295,-24.758c0,-10.21 -2.765,-18.505 -8.295,-24.886c-5.531,-6.381 -12.72,-9.572 -21.568,-9.572c-8.678,0 -15.74,3.191 -21.185,9.572c-5.445,6.381 -8.168,14.676 -8.168,24.886c0,10.21 2.723,18.463 8.168,24.758c5.445,6.296 12.507,9.444 21.185,9.444c8.848,0 16.037,-3.148 21.568,-9.444Z" style="fill:url(#_Linear1);fill-rule:nonzero;"/><path d="M240.31,68.149c7.572,-4.254 16.208,-6.381 25.907,-6.381l0,41.605c-1.532,-0.17 -3.829,-0.255 -6.892,-0.255c-10.72,0 -19.398,2.509 -26.034,7.529c-6.637,5.02 -10.465,11.869 -11.486,20.547l0,70.447l-45.433,0l0,-138.086l45.433,0l0,22.972c4.764,-7.998 10.933,-14.124 18.505,-18.378Z" style="fill:url(#_Linear2);fill-rule:nonzero;"/><path d="M392.306,70.829c11.401,5.871 20.249,14.124 26.545,24.759c6.296,10.635 9.444,22.929 9.444,36.882c0,14.124 -3.148,26.503 -9.444,37.138c-6.296,10.635 -15.144,18.888 -26.545,24.758c-11.401,5.871 -24.588,8.806 -39.562,8.806c-14.975,0 -28.162,-2.935 -39.563,-8.806c-11.401,-5.87 -20.206,-14.123 -26.417,-24.758c-6.211,-10.635 -9.317,-23.014 -9.317,-37.138c0,-13.953 3.106,-26.247 9.317,-36.882c6.211,-10.635 15.016,-18.888 26.417,-24.759c11.401,-5.87 24.588,-8.805 39.563,-8.805c14.974,0 28.161,2.935 39.562,8.805ZM331.303,108.222c-5.445,6.296 -8.167,14.549 -8.167,24.759c0,10.38 2.722,18.717 8.167,25.013c5.446,6.296 12.592,9.444 21.441,9.444c9.018,0 16.25,-3.148 21.695,-9.444c5.445,-6.296 8.168,-14.633 8.168,-25.013c0,-10.21 -2.765,-18.463 -8.295,-24.759c-5.531,-6.296 -12.72,-9.444 -21.568,-9.444c-8.849,0 -15.995,3.148 -21.441,9.444Z" style="fill:url(#_Linear3);fill-rule:nonzero;"/><path d="M440.802,216.955c4.424,0 7.827,-1.446 10.21,-4.339c2.382,-2.893 3.573,-7.147 3.573,-12.762l0,-136.299l45.433,0l0,143.191c0,14.293 -4.382,25.566 -13.145,33.819c-8.763,8.253 -20.632,12.379 -35.606,12.379c-10.72,0 -20.93,-1.786 -30.629,-5.36l8.933,-32.415c4.425,1.191 8.168,1.786 11.231,1.786ZM493.765,6.764c4.509,4.509 6.763,10.337 6.763,17.484c0,6.977 -2.254,12.762 -6.763,17.356c-4.51,4.595 -10.253,6.892 -17.229,6.892c-6.977,0 -12.72,-2.297 -17.229,-6.892c-4.509,-4.594 -6.764,-10.379 -6.764,-17.356c0,-7.147 2.255,-12.975 6.764,-17.484c4.509,-4.509 10.252,-6.764 17.229,-6.764c6.976,0 12.719,2.255 17.229,6.764Z" style="fill:url(#_Linear4);fill-rule:nonzero;"/><path d="M648.824,81.932c12.081,13.273 18.122,31.48 18.122,54.622c0,3.574 -0.085,6.296 -0.255,8.168l-95.971,0c2.212,7.827 6.041,13.825 11.486,17.994c5.445,4.169 12.081,6.254 19.909,6.254c5.955,0 11.698,-1.191 17.228,-3.574c5.531,-2.382 10.593,-5.87 15.187,-10.464l23.738,23.737c-7.147,7.998 -15.783,14.081 -25.907,18.25c-10.125,4.169 -21.568,6.253 -34.33,6.253c-14.804,0 -27.737,-2.893 -38.797,-8.678c-11.06,-5.786 -19.526,-13.953 -25.397,-24.503c-5.87,-10.55 -8.805,-22.802 -8.805,-36.755c0,-14.123 2.977,-26.588 8.933,-37.393c5.956,-10.805 14.379,-19.143 25.269,-25.014c10.89,-5.87 23.482,-8.805 37.776,-8.805c22.461,0 39.732,6.636 51.814,19.908ZM622.789,120.474c0,-7.998 -2.34,-14.421 -7.019,-19.271c-4.679,-4.849 -10.848,-7.274 -18.505,-7.274c-7.147,0 -13.145,2.382 -17.995,7.147c-4.849,4.764 -8.04,11.23 -9.571,19.398l53.09,0Z" style="fill:url(#_Linear5);fill-rule:nonzero;"/><path d="M754.749,99.544c-8.168,0 -14.804,3.106 -19.909,9.316c-5.105,6.211 -7.657,14.251 -7.657,24.121c0,10.039 2.552,18.122 7.657,24.248c5.105,6.126 11.741,9.188 19.909,9.188c12.592,0 21.61,-5.189 27.056,-15.569l33.436,19.143c-5.445,10.55 -13.613,18.717 -24.503,24.503c-10.89,5.785 -23.652,8.678 -38.286,8.678c-14.124,0 -26.545,-2.893 -37.266,-8.678c-10.72,-5.786 -19.015,-13.953 -24.886,-24.503c-5.87,-10.55 -8.805,-22.802 -8.805,-36.755c0,-14.123 2.977,-26.588 8.933,-37.393c5.956,-10.805 14.336,-19.143 25.141,-25.014c10.806,-5.87 23.27,-8.805 37.393,-8.805c13.783,0 26.035,2.85 36.755,8.55c10.72,5.701 19.058,13.741 25.014,24.121l-32.926,19.143c-6.467,-9.529 -15.485,-14.294 -27.056,-14.294Z" style="fill:url(#_Linear6);fill-rule:nonzero;"/><path d="M928.568,194.494c-5.104,2.893 -10.975,5.147 -17.611,6.764c-6.637,1.616 -13.358,2.425 -20.164,2.425c-13.613,0 -24.631,-3.914 -33.054,-11.741c-8.423,-7.828 -12.635,-18.633 -12.635,-32.416l0,-59.216l-19.143,0l0,-30.119l19.143,0l0,-38.286l45.178,0l0,38.286l35.734,0l0,30.119l-35.734,0l0,52.069c0,9.699 3.999,14.549 11.996,14.549c4.935,0 10.806,-1.532 17.612,-4.594l8.678,32.16Z" style="fill:url(#_Linear7);fill-rule:nonzero;"/><path d="M1001.06,93.163c-3.914,0 -7.062,0.723 -9.444,2.17c-2.382,1.446 -3.573,3.616 -3.573,6.508c0,3.063 1.871,5.531 5.615,7.402c3.743,1.872 9.699,3.914 17.867,6.126c9.869,2.893 18.079,5.743 24.631,8.551c6.551,2.807 12.209,7.061 16.973,12.762c4.765,5.7 7.147,13.145 7.147,22.333c0,13.954 -5.403,24.886 -16.208,32.799c-10.805,7.912 -24.886,11.869 -42.242,11.869c-11.741,0 -22.972,-1.659 -33.692,-4.978c-10.72,-3.318 -20.249,-8.21 -28.587,-14.676l14.293,-29.353c7.828,5.445 16.038,9.657 24.631,12.635c8.593,2.978 16.718,4.466 24.376,4.466c4.424,0 7.955,-0.723 10.592,-2.169c2.638,-1.446 3.956,-3.531 3.956,-6.253c0,-3.404 -1.914,-6.041 -5.743,-7.913c-3.828,-1.872 -9.826,-3.914 -17.994,-6.126c-9.699,-2.892 -17.697,-5.743 -23.993,-8.55c-6.296,-2.808 -11.783,-7.019 -16.463,-12.635c-4.679,-5.615 -7.019,-12.932 -7.019,-21.951c0,-13.953 5.275,-24.886 15.825,-32.798c10.55,-7.913 24.163,-11.869 40.839,-11.869c10.039,0 19.951,1.361 29.735,4.084c9.784,2.723 19.016,6.721 27.694,11.996l-15.315,29.608c-17.866,-9.358 -32.5,-14.038 -43.901,-14.038Z" style="fill:url(#_Linear8);fill-rule:nonzero;"/></g><defs><linearGradient id="_Linear1" x1="0" y1="0" x2="1" y2="0" gradientUnits="userSpaceOnUse" gradientTransform="matrix(364.741,-60.4169,60.4169,364.741,91.4278,147.466)"><stop offset="0%" style="stop-color:#f4f4f4;stop-opacity:1"/><stop offset="100%" style="stop-color:#f4f4f4;stop-opacity:1"/></linearGradient><linearGradient id="_Linear2" x1="0" y1="0" x2="1" y2="0" gradientUnits="userSpaceOnUse" gradientTransform="matrix(364.741,-60.4169,60.4169,364.741,91.4278,147.466)"><stop offset="0%" style="stop-color:#f4f4f4;stop-opacity:1"/><stop offset="100%" style="stop-color:#f4f4f4;stop-opacity:1"/></linearGradient><linearGradient id="_Linear3" x1="0" y1="0" x2="1" y2="0" gradientUnits="userSpaceOnUse" gradientTransform="matrix(364.741,-60.4169,60.4169,364.741,91.4278,147.466)"><stop offset="0%" style="stop-color:#f4f4f4;stop-opacity:1"/><stop offset="100%" style="stop-color:#f4f4f4;stop-opacity:1"/></linearGradient><linearGradient id="_Linear4" x1="0" y1="0" x2="1" y2="0" gradientUnits="userSpaceOnUse" gradientTransform="matrix(364.741,-60.4169,60.4169,364.741,91.4278,147.466)"><stop offset="0%" style="stop-color:#f4f4f4;stop-opacity:1"/><stop offset="100%" style="stop-color:#f4f4f4;stop-opacity:1"/></linearGradient><linearGradient id="_Linear5" x1="0" y1="0" x2="1" y2="0" gradientUnits="userSpaceOnUse" gradientTransform="matrix(364.741,-60.4169,60.4169,364.741,91.4278,147.466)"><stop offset="0%" style="stop-color:#f4f4f4;stop-opacity:1"/><stop offset="100%" style="stop-color:#f4f4f4;stop-opacity:1"/></linearGradient><linearGradient id="_Linear6" x1="0" y1="0" x2="1" y2="0" gradientUnits="userSpaceOnUse" gradientTransform="matrix(364.741,-60.4169,60.4169,364.741,91.4278,147.466)"><stop offset="0%" style="stop-color:#f4f4f4;stop-opacity:1"/><stop offset="100%" style="stop-color:#f4f4f4;stop-opacity:1"/></linearGradient><linearGradient id="_Linear7" x1="0" y1="0" x2="1" y2="0" gradientUnits="userSpaceOnUse" gradientTransform="matrix(364.741,-60.4169,60.4169,364.741,91.4278,147.466)"><stop offset="0%" style="stop-color:#f4f4f4;stop-opacity:1"/><stop offset="100%" style="stop-color:#f4f4f4;stop-opacity:1"/></linearGradient><linearGradient id="_Linear8" x1="0" y1="0" x2="1" y2="0" gradientUnits="userSpaceOnUse" gradientTransform="matrix(364.741,-60.4169,60.4169,364.741,91.4278,147.466)"><stop offset="0%" style="stop-color:#f4f4f4;stop-opacity:1"/><stop offset="100%" style="stop-color:#f4f4f4;stop-opacity:1"/></linearGradient></defs></svg>