<?xml version="1.0" standalone="no"?><!DOCTYPE svg PUBLIC "-//W3C//DTD SVG 1.1//EN" "http://www.w3.org/Graphics/SVG/1.1/DTD/svg11.dtd"><svg width="100%" height="100%" viewBox="0 0 1511 253" version="1.1" xmlns="http://www.w3.org/2000/svg" xmlns:xlink="http://www.w3.org/1999/xlink" xml:space="preserve" style="fill-rule:evenodd;clip-rule:evenodd;stroke-linejoin:round;stroke-miterlimit:1.41421;"><g><path d="M0,63.555l46.199,0l27.566,93.418l27.055,-93.418l43.391,0l27.311,93.418l27.566,-93.418l44.412,0l-50.537,138.086l-44.923,0l-26.29,-85.251l-26.545,85.251l-44.922,0l-50.283,-138.086Z" style="fill:url(#_Linear1);fill-rule:nonzero;"/><path d="M369.59,81.932c12.081,13.273 18.122,31.48 18.122,54.622c0,3.574 -0.085,6.296 -0.256,8.168l-95.97,0c2.212,7.827 6.04,13.825 11.486,17.994c5.445,4.169 12.081,6.254 19.908,6.254c5.956,0 11.699,-1.191 17.229,-3.574c5.53,-2.382 10.593,-5.87 15.187,-10.464l23.738,23.737c-7.147,7.998 -15.783,14.081 -25.907,18.25c-10.125,4.169 -21.568,6.253 -34.33,6.253c-14.804,0 -27.737,-2.893 -38.797,-8.678c-11.061,-5.786 -19.526,-13.953 -25.397,-24.503c-5.87,-10.55 -8.806,-22.802 -8.806,-36.755c0,-14.123 2.978,-26.588 8.934,-37.393c5.956,-10.805 14.379,-19.143 25.269,-25.014c10.89,-5.87 23.482,-8.805 37.776,-8.805c22.461,0 39.732,6.636 51.814,19.908ZM343.555,120.474c0,-7.998 -2.34,-14.421 -7.019,-19.271c-4.68,-4.849 -10.848,-7.274 -18.505,-7.274c-7.147,0 -13.145,2.382 -17.995,7.147c-4.849,4.764 -8.04,11.23 -9.571,19.398l53.09,0Z" style="fill:url(#_Linear2);fill-rule:nonzero;"/><path d="M534.476,70.829c9.699,5.871 17.228,14.209 22.588,25.014c5.36,10.805 8.041,23.27 8.041,37.393c0,13.953 -2.595,26.205 -7.785,36.755c-5.19,10.55 -12.592,18.717 -22.206,24.503c-9.614,5.785 -20.717,8.678 -33.309,8.678c-8.679,0 -16.548,-1.659 -23.61,-4.977c-7.062,-3.318 -13.06,-8.125 -17.995,-14.421l0,17.867l-45.433,0l0,-189.389l45.433,0l0,69.17c10.04,-12.932 23.568,-19.398 40.584,-19.398c12.762,0 23.992,2.935 33.692,8.805ZM511.121,156.973c5.53,-6.295 8.295,-14.548 8.295,-24.758c0,-10.21 -2.765,-18.505 -8.295,-24.886c-5.53,-6.381 -12.72,-9.572 -21.568,-9.572c-8.678,0 -15.74,3.191 -21.185,9.572c-5.445,6.381 -8.168,14.676 -8.168,24.886c0,10.21 2.723,18.463 8.168,24.758c5.445,6.296 12.507,9.444 21.185,9.444c8.848,0 16.038,-3.148 21.568,-9.444Z" style="fill:url(#_Linear3);fill-rule:nonzero;"/><path d="M789.717,12.252l0,189.389l-45.433,0l0,-17.867c-4.764,6.466 -10.593,11.358 -17.484,14.676c-6.892,3.318 -14.676,4.977 -23.355,4.977c-12.762,0 -23.992,-2.977 -33.691,-8.933c-9.7,-5.956 -17.229,-14.336 -22.589,-25.141c-5.36,-10.806 -8.04,-23.27 -8.04,-37.393c0,-13.953 2.637,-26.205 7.912,-36.755c5.275,-10.55 12.677,-18.718 22.206,-24.503c9.529,-5.786 20.59,-8.678 33.181,-8.678c8.849,0 16.804,1.701 23.865,5.104c7.062,3.404 13.06,8.253 17.995,14.549l0,-69.425l45.433,0ZM736.116,158.122c5.445,-6.381 8.168,-14.676 8.168,-24.886c0,-10.38 -2.723,-18.718 -8.168,-25.014c-5.445,-6.296 -12.592,-9.444 -21.44,-9.444c-8.848,0 -16.038,3.191 -21.568,9.572c-5.53,6.381 -8.295,14.676 -8.295,24.886c0,10.21 2.765,18.505 8.295,24.886c5.53,6.381 12.72,9.572 21.568,9.572c8.848,0 15.995,-3.191 21.44,-9.572Z" style="fill:url(#_Linear4);fill-rule:nonzero;"/><path d="M940.82,81.932c12.081,13.273 18.122,31.48 18.122,54.622c0,3.574 -0.085,6.296 -0.255,8.168l-95.971,0c2.212,7.827 6.041,13.825 11.486,17.994c5.445,4.169 12.081,6.254 19.909,6.254c5.955,0 11.698,-1.191 17.229,-3.574c5.53,-2.382 10.592,-5.87 15.186,-10.464l23.738,23.737c-7.147,7.998 -15.783,14.081 -25.907,18.25c-10.125,4.169 -21.568,6.253 -34.33,6.253c-14.804,0 -27.736,-2.893 -38.797,-8.678c-11.06,-5.786 -19.526,-13.953 -25.396,-24.503c-5.871,-10.55 -8.806,-22.802 -8.806,-36.755c0,-14.123 2.978,-26.588 8.933,-37.393c5.956,-10.805 14.379,-19.143 25.269,-25.014c10.89,-5.87 23.482,-8.805 37.776,-8.805c22.461,0 39.732,6.636 51.814,19.908ZM914.785,120.474c0,-7.998 -2.339,-14.421 -7.019,-19.271c-4.679,-4.849 -10.848,-7.274 -18.505,-7.274c-7.147,0 -13.145,2.382 -17.994,7.147c-4.85,4.764 -8.04,11.23 -9.572,19.398l53.09,0Z" style="fill:url(#_Linear5);fill-rule:nonzero;"/><path d="M1032.96,93.163c-3.914,0 -7.062,0.723 -9.444,2.17c-2.382,1.446 -3.573,3.616 -3.573,6.508c0,3.063 1.872,5.531 5.615,7.402c3.744,1.872 9.699,3.914 17.867,6.126c9.869,2.893 18.08,5.743 24.631,8.551c6.551,2.807 12.209,7.061 16.973,12.762c4.765,5.7 7.147,13.145 7.147,22.333c0,13.954 -5.403,24.886 -16.208,32.799c-10.805,7.912 -24.886,11.869 -42.242,11.869c-11.741,0 -22.972,-1.659 -33.692,-4.978c-10.72,-3.318 -20.249,-8.21 -28.587,-14.676l14.293,-29.353c7.828,5.445 16.038,9.657 24.631,12.635c8.593,2.978 16.719,4.466 24.376,4.466c4.424,0 7.955,-0.723 10.592,-2.169c2.638,-1.446 3.957,-3.531 3.957,-6.253c0,-3.404 -1.915,-6.041 -5.743,-7.913c-3.829,-1.872 -9.827,-3.914 -17.995,-6.126c-9.699,-2.892 -17.697,-5.743 -23.993,-8.55c-6.296,-2.808 -11.783,-7.019 -16.463,-12.635c-4.679,-5.615 -7.019,-12.932 -7.019,-21.951c0,-13.953 5.275,-24.886 15.825,-32.798c10.55,-7.913 24.163,-11.869 40.839,-11.869c10.039,0 19.951,1.361 29.735,4.084c9.785,2.723 19.016,6.721 27.694,11.996l-15.314,29.608c-17.867,-9.358 -32.501,-14.038 -43.902,-14.038Z" style="fill:url(#_Linear6);fill-rule:nonzero;"/><path d="M1119.23,63.555l45.177,0l0,138.086l-45.177,0l0,-138.086ZM1158.67,6.764c4.51,4.509 6.764,10.337 6.764,17.484c0,6.977 -2.254,12.762 -6.764,17.356c-4.509,4.595 -10.252,6.892 -17.228,6.892c-6.977,0 -12.72,-2.297 -17.229,-6.892c-4.509,-4.594 -6.764,-10.379 -6.764,-17.356c0,-7.147 2.255,-12.975 6.764,-17.484c4.509,-4.509 10.252,-6.764 17.229,-6.764c6.976,0 12.719,2.255 17.228,6.764Z" style="fill:url(#_Linear7);fill-rule:nonzero;"/><path d="M1333.89,63.555l0,125.834c0,12.762 -3.148,23.95 -9.444,33.564c-6.296,9.614 -15.102,17.016 -26.418,22.206c-11.315,5.19 -24.375,7.785 -39.179,7.785c-11.571,0 -22.717,-1.616 -33.437,-4.849c-10.72,-3.233 -20.164,-7.572 -28.332,-13.018l15.825,-31.394c6.296,4.254 13.103,7.572 20.42,9.954c7.317,2.382 14.719,3.573 22.206,3.573c10.209,0 18.292,-2.382 24.248,-7.146c5.955,-4.765 8.933,-11.231 8.933,-19.399l0,-14.804c-9.189,12.082 -22.291,18.122 -39.307,18.122c-11.401,0 -21.568,-2.765 -30.502,-8.295c-8.933,-5.53 -15.91,-13.357 -20.929,-23.482c-5.02,-10.125 -7.53,-21.738 -7.53,-34.841c0,-12.932 2.425,-24.333 7.274,-34.202c4.85,-9.869 11.699,-17.526 20.547,-22.972c8.849,-5.445 18.888,-8.167 30.119,-8.167c8.508,0 16.208,1.574 23.099,4.722c6.892,3.148 12.635,7.699 17.229,13.655l0,-16.846l45.178,0ZM1281.06,151.869c5.105,-5.956 7.657,-13.698 7.657,-23.227c0,-9.699 -2.552,-17.527 -7.657,-23.483c-5.105,-5.955 -11.826,-8.933 -20.164,-8.933c-8.338,0 -15.102,3.02 -20.292,9.061c-5.19,6.041 -7.785,13.826 -7.785,23.355c0,9.529 2.595,17.271 7.785,23.227c5.19,5.955 11.954,8.933 20.292,8.933c8.338,0 15.059,-2.978 20.164,-8.933Z" style="fill:url(#_Linear8);fill-rule:nonzero;"/><path d="M1497.12,76.062c9.103,9.529 13.655,22.376 13.655,38.541l0,87.038l-45.178,0l0,-74.02c0,-7.828 -2.127,-13.996 -6.381,-18.505c-4.254,-4.51 -9.954,-6.764 -17.101,-6.764c-7.487,0.17 -13.655,2.637 -18.505,7.402c-4.85,4.764 -7.7,11.06 -8.551,18.888l0,72.999l-45.432,0l0,-138.086l45.432,0l0,22.461c4.935,-7.997 11.274,-14.038 19.016,-18.122c7.742,-4.084 16.633,-6.126 26.673,-6.126c15.144,0 27.268,4.765 36.372,14.294Z" style="fill:url(#_Linear9);fill-rule:nonzero;"/></g><defs><linearGradient id="_Linear1" x1="0" y1="0" x2="1" y2="0" gradientUnits="userSpaceOnUse" gradientTransform="matrix(1463.71,-215.881,215.881,1463.71,129.024,214.201)"><stop offset="0%" style="stop-color:#688ff4;stop-opacity:1"/><stop offset="100%" style="stop-color:#89f8ff;stop-opacity:1"/></linearGradient><linearGradient id="_Linear2" x1="0" y1="0" x2="1" y2="0" gradientUnits="userSpaceOnUse" gradientTransform="matrix(1463.71,-215.881,215.881,1463.71,129.024,214.201)"><stop offset="0%" style="stop-color:#688ff4;stop-opacity:1"/><stop offset="100%" style="stop-color:#89f8ff;stop-opacity:1"/></linearGradient><linearGradient id="_Linear3" x1="0" y1="0" x2="1" y2="0" gradientUnits="userSpaceOnUse" gradientTransform="matrix(1463.71,-215.881,215.881,1463.71,129.024,214.201)"><stop offset="0%" style="stop-color:#688ff4;stop-opacity:1"/><stop offset="100%" style="stop-color:#89f8ff;stop-opacity:1"/></linearGradient><linearGradient id="_Linear4" x1="0" y1="0" x2="1" y2="0" gradientUnits="userSpaceOnUse" gradientTransform="matrix(1463.71,-215.881,215.881,1463.71,129.024,214.201)"><stop offset="0%" style="stop-color:#688ff4;stop-opacity:1"/><stop offset="100%" style="stop-color:#89f8ff;stop-opacity:1"/></linearGradient><linearGradient id="_Linear5" x1="0" y1="0" x2="1" y2="0" gradientUnits="userSpaceOnUse" gradientTransform="matrix(1463.71,-215.881,215.881,1463.71,129.024,214.201)"><stop offset="0%" style="stop-color:#688ff4;stop-opacity:1"/><stop offset="100%" style="stop-color:#89f8ff;stop-opacity:1"/></linearGradient><linearGradient id="_Linear6" x1="0" y1="0" x2="1" y2="0" gradientUnits="userSpaceOnUse" gradientTransform="matrix(1463.71,-215.881,215.881,1463.71,129.024,214.201)"><stop offset="0%" style="stop-color:#688ff4;stop-opacity:1"/><stop offset="100%" style="stop-color:#89f8ff;stop-opacity:1"/></linearGradient><linearGradient id="_Linear7" x1="0" y1="0" x2="1" y2="0" gradientUnits="userSpaceOnUse" gradientTransform="matrix(1463.71,-215.881,215.881,1463.71,129.024,214.201)"><stop offset="0%" style="stop-color:#688ff4;stop-opacity:1"/><stop offset="100%" style="stop-color:#89f8ff;stop-opacity:1"/></linearGradient><linearGradient id="_Linear8" x1="0" y1="0" x2="1" y2="0" gradientUnits="userSpaceOnUse" gradientTransform="matrix(1463.71,-215.881,215.881,1463.71,129.024,214.201)"><stop offset="0%" style="stop-color:#688ff4;stop-opacity:1"/><stop offset="100%" style="stop-color:#89f8ff;stop-opacity:1"/></linearGradient><linearGradient id="_Linear9" x1="0" y1="0" x2="1" y2="0" gradientUnits="userSpaceOnUse" gradientTransform="matrix(1463.71,-215.881,215.881,1463.71,129.024,214.201)"><stop offset="0%" style="stop-color:#688ff4;stop-opacity:1"/><stop offset="100%" style="stop-color:#89f8ff;stop-opacity:1"/></linearGradient></defs></svg>